<?xml version="1.0" encoding="UTF-8"?>
<svg xmlns="http://www.w3.org/2000/svg" width="246" height="425" viewBox="0 0 245.992188 425.309" role="img" aria-label="Atelier Ethos logo">
  <g transform="translate(-1063.910156 -304.675781)">
  <path fill-rule="nonzero" fill="#8B5A3C" d="M 1282.925781 660.71875 L 1150.136719 660.71875 L 1090.785156 729.984375 L 1090.886719 660.71875 C 1076.046875 660.71875 1063.910156 648.582031 1063.910156 633.746094 L 1063.910156 331.65625 C 1063.910156 316.8125 1076.046875 304.675781 1090.886719 304.675781 L 1282.925781 304.675781 C 1297.761719 304.675781 1309.902344 316.8125 1309.902344 331.65625 L 1309.902344 633.746094 C 1309.902344 648.582031 1297.761719 660.71875 1282.925781 660.71875 "/>
  <path fill-rule="nonzero" fill="#F1EADD" d="M 1088.664062 564.308594 C 1088.664062 567.863281 1089.757812 570.804688 1091.9375 573.125 C 1094.113281 575.441406 1096.828125 576.609375 1100.074219 576.609375 C 1103.320312 576.609375 1106.03125 575.441406 1108.199219 573.125 C 1110.367188 570.804688 1111.445312 567.863281 1111.445312 564.308594 C 1111.445312 560.753906 1110.367188 557.828125 1108.199219 555.53125 C 1106.03125 553.230469 1103.320312 552.085938 1100.074219 552.085938 C 1096.734375 552.085938 1093.996094 553.222656 1091.863281 555.511719 C 1089.734375 557.796875 1088.664062 560.730469 1088.664062 564.308594 M 1117.277344 575.964844 L 1122.359375 575.964844 L 1122.359375 580.976562 L 1110.988281 580.976562 L 1110.988281 576.535156 C 1109.636719 578.265625 1107.96875 579.574219 1105.972656 580.460938 C 1103.984375 581.351562 1101.734375 581.796875 1099.222656 581.796875 C 1094.367188 581.796875 1090.292969 580.117188 1087.011719 576.769531 C 1083.730469 573.414062 1082.089844 569.261719 1082.089844 564.308594 C 1082.089844 559.355469 1083.734375 555.191406 1087.027344 551.816406 C 1090.324219 548.4375 1094.386719 546.75 1099.222656 546.75 C 1101.660156 546.75 1103.863281 547.1875 1105.816406 548.066406 C 1107.769531 548.941406 1109.492188 550.261719 1110.988281 552.011719 L 1110.988281 547.636719 L 1122.359375 547.636719 L 1122.359375 552.648438 L 1117.277344 552.648438 Z M 1117.277344 575.964844 "/>
  <path fill-rule="nonzero" fill="#F1EADD" d="M 1136.933594 569.179688 L 1136.933594 570.28125 C 1136.933594 572.957031 1137.164062 574.578125 1137.628906 575.128906 C 1138.089844 575.691406 1139.148438 575.96875 1140.808594 575.96875 C 1141.070312 575.96875 1141.839844 575.859375 1143.117188 575.648438 L 1143.476562 575.613281 L 1143.476562 580.90625 C 1142.761719 581.027344 1141.992188 581.117188 1141.164062 581.175781 C 1140.332031 581.234375 1139.359375 581.265625 1138.25 581.265625 C 1135.519531 581.265625 1133.640625 580.796875 1132.597656 579.863281 C 1131.554688 578.921875 1131.03125 577.257812 1131.03125 574.867188 L 1131.03125 552.648438 L 1124.992188 552.648438 L 1124.992188 547.640625 L 1131.03125 547.640625 L 1131.03125 535.203125 L 1136.933594 535.203125 L 1136.933594 547.640625 L 1143.476562 547.640625 L 1143.476562 552.648438 L 1136.933594 552.648438 Z M 1136.933594 569.179688 "/>
  <path fill-rule="nonzero" fill="#F1EADD" d="M 1154.351562 561.25 L 1176.742188 561.25 C 1176.269531 558.199219 1175.078125 555.867188 1173.167969 554.269531 C 1171.261719 552.671875 1168.722656 551.867188 1165.546875 551.867188 C 1162.371094 551.867188 1159.828125 552.671875 1157.921875 554.269531 C 1156.015625 555.867188 1154.824219 558.199219 1154.351562 561.25 M 1182.425781 571.066406 C 1180.890625 574.425781 1178.621094 577.070312 1175.621094 578.988281 C 1172.621094 580.90625 1169.242188 581.871094 1165.476562 581.871094 C 1160.191406 581.871094 1155.933594 580.230469 1152.695312 576.960938 C 1149.464844 573.695312 1147.847656 569.351562 1147.847656 563.953125 C 1147.847656 558.765625 1149.453125 554.601562 1152.675781 551.460938 C 1155.902344 548.324219 1160.191406 546.75 1165.546875 546.75 C 1170.855469 546.75 1175.128906 548.445312 1178.378906 551.832031 C 1181.625 555.222656 1183.246094 559.722656 1183.246094 565.339844 L 1183.246094 566.121094 L 1154.351562 566.121094 C 1154.585938 569.25 1155.8125 571.777344 1158.03125 573.710938 C 1160.242188 575.644531 1163.023438 576.609375 1166.363281 576.609375 C 1168.46875 576.609375 1170.417969 576.125 1172.210938 575.167969 C 1174 574.207031 1175.464844 572.835938 1176.601562 571.066406 Z M 1182.425781 571.066406 "/>
  <path fill-rule="nonzero" fill="#F1EADD" d="M 1192.699219 533.667969 L 1186.941406 533.667969 L 1186.941406 528.550781 L 1198.957031 528.550781 L 1198.957031 575.964844 L 1204.714844 575.964844 L 1204.714844 580.980469 L 1186.941406 580.980469 L 1186.941406 575.964844 L 1192.699219 575.964844 Z M 1192.699219 533.667969 "/>
  <path fill-rule="nonzero" fill="#F1EADD" d="M 1210.507812 532.640625 L 1219.464844 532.640625 L 1219.464844 539.355469 L 1210.507812 539.355469 Z M 1219.460938 575.964844 L 1225.292969 575.964844 L 1225.292969 580.976562 L 1207.519531 580.976562 L 1207.519531 575.964844 L 1213.28125 575.964844 L 1213.28125 552.648438 L 1207.519531 552.648438 L 1207.519531 547.636719 L 1219.460938 547.636719 Z M 1219.460938 575.964844 "/>
  <path fill-rule="nonzero" fill="#F1EADD" d="M 1234.464844 561.25 L 1256.855469 561.25 C 1256.382812 558.199219 1255.191406 555.867188 1253.285156 554.269531 C 1251.375 552.671875 1248.835938 551.867188 1245.660156 551.867188 C 1242.484375 551.867188 1239.941406 552.671875 1238.035156 554.269531 C 1236.128906 555.867188 1234.9375 558.199219 1234.464844 561.25 M 1262.542969 571.066406 C 1261.003906 574.425781 1258.734375 577.070312 1255.734375 578.988281 C 1252.738281 580.90625 1249.355469 581.871094 1245.589844 581.871094 C 1240.304688 581.871094 1236.046875 580.230469 1232.808594 576.960938 C 1229.578125 573.695312 1227.960938 569.351562 1227.960938 563.953125 C 1227.960938 558.765625 1229.570312 554.601562 1232.792969 551.460938 C 1236.015625 548.324219 1240.304688 546.75 1245.660156 546.75 C 1250.96875 546.75 1255.242188 548.445312 1258.492188 551.832031 C 1261.738281 555.222656 1263.359375 559.722656 1263.359375 565.339844 L 1263.359375 566.121094 L 1234.464844 566.121094 C 1234.699219 569.25 1235.925781 571.777344 1238.144531 573.710938 C 1240.355469 575.644531 1243.136719 576.609375 1246.476562 576.609375 C 1248.582031 576.609375 1250.535156 576.125 1252.324219 575.167969 C 1254.113281 574.207031 1255.578125 572.835938 1256.714844 571.066406 Z M 1262.542969 571.066406 "/>
  <path fill-rule="nonzero" fill="#F1EADD" d="M 1279.210938 552.863281 C 1280.441406 550.730469 1281.941406 549.167969 1283.707031 548.171875 C 1285.472656 547.175781 1287.65625 546.679688 1290.265625 546.679688 C 1290.40625 546.679688 1290.644531 546.691406 1290.976562 546.714844 C 1291.308594 546.738281 1291.554688 546.753906 1291.722656 546.753906 L 1291.722656 552.363281 L 1289.984375 552.363281 C 1286.59375 552.363281 1283.949219 553.265625 1282.058594 555.050781 C 1280.160156 556.839844 1279.210938 559.347656 1279.210938 562.570312 L 1279.210938 575.96875 L 1284.363281 575.96875 L 1284.363281 580.980469 L 1267.875 580.980469 L 1267.875 575.96875 L 1273.027344 575.96875 L 1273.027344 552.652344 L 1267.875 552.652344 L 1267.875 547.636719 L 1279.210938 547.636719 Z M 1279.210938 552.863281 "/>
  <path fill-rule="nonzero" fill="#F1EADD" d="M 1083.152344 626.050781 L 1083.152344 624.027344 L 1086.59375 624.027344 L 1086.59375 598.242188 L 1083.152344 598.242188 L 1083.152344 596.195312 L 1105.019531 596.195312 L 1105.019531 603.539062 L 1102.605469 603.539062 L 1102.605469 598.242188 L 1089.003906 598.242188 L 1089.003906 609.230469 L 1099.449219 609.230469 L 1099.449219 611.253906 L 1089.003906 611.253906 L 1089.003906 624.027344 L 1102.605469 624.027344 L 1102.605469 618.84375 L 1105.019531 618.84375 L 1105.019531 626.050781 Z M 1083.152344 626.050781 "/>
  <path fill-rule="nonzero" fill="#F1EADD" d="M 1133.824219 626.050781 L 1133.824219 624.027344 L 1137.628906 624.027344 L 1137.628906 598.242188 L 1129.957031 598.242188 L 1129.957031 604.371094 L 1127.851562 604.371094 L 1127.851562 596.195312 L 1149.820312 596.195312 L 1149.820312 604.371094 L 1147.75 604.371094 L 1147.75 598.242188 L 1140.039062 598.242188 L 1140.039062 624.027344 L 1143.890625 624.027344 L 1143.890625 626.050781 Z M 1133.824219 626.050781 "/>
  <path fill-rule="nonzero" fill="#F1EADD" d="M 1174.976562 626.050781 L 1174.976562 624.027344 L 1178.417969 624.027344 L 1178.417969 598.242188 L 1174.976562 598.242188 L 1174.976562 596.195312 L 1184.269531 596.195312 L 1184.269531 598.242188 L 1180.828125 598.242188 L 1180.828125 609.46875 L 1196.65625 609.46875 L 1196.65625 598.242188 L 1193.238281 598.242188 L 1193.238281 596.195312 L 1202.503906 596.195312 L 1202.503906 598.242188 L 1199.070312 598.242188 L 1199.070312 624.027344 L 1202.503906 624.027344 L 1202.503906 626.050781 L 1193.238281 626.050781 L 1193.238281 624.027344 L 1196.65625 624.027344 L 1196.65625 611.457031 L 1180.828125 611.457031 L 1180.828125 624.027344 L 1184.269531 624.027344 L 1184.269531 626.050781 Z M 1174.976562 626.050781 "/>
  <path fill-rule="nonzero" fill="#F1EADD" d="M 1223.460938 611.132812 C 1223.460938 613.167969 1223.800781 615.019531 1224.464844 616.679688 C 1225.132812 618.339844 1226.132812 619.816406 1227.472656 621.109375 C 1228.574219 622.191406 1229.90625 623.039062 1231.449219 623.644531 C 1232.992188 624.25 1234.582031 624.554688 1236.21875 624.554688 C 1237.882812 624.554688 1239.476562 624.25 1241.011719 623.652344 C 1242.554688 623.058594 1243.875 622.207031 1244.984375 621.109375 C 1246.308594 619.828125 1247.304688 618.355469 1247.976562 616.679688 C 1248.65625 615.007812 1248.988281 613.15625 1248.988281 611.132812 C 1248.988281 609.09375 1248.65625 607.230469 1247.976562 605.542969 C 1247.304688 603.859375 1246.308594 602.375 1244.984375 601.089844 C 1243.851562 599.996094 1242.515625 599.152344 1240.988281 598.550781 C 1239.453125 597.953125 1237.863281 597.652344 1236.21875 597.652344 C 1234.582031 597.652344 1233.003906 597.953125 1231.472656 598.550781 C 1229.941406 599.152344 1228.605469 599.996094 1227.472656 601.089844 C 1226.121094 602.398438 1225.117188 603.890625 1224.457031 605.558594 C 1223.792969 607.226562 1223.460938 609.082031 1223.460938 611.132812 M 1221.011719 611.132812 C 1221.011719 608.8125 1221.441406 606.65625 1222.300781 604.675781 C 1223.160156 602.691406 1224.429688 600.933594 1226.117188 599.394531 C 1227.476562 598.152344 1229.015625 597.210938 1230.722656 596.578125 C 1232.429688 595.945312 1234.261719 595.625 1236.21875 595.625 C 1238.199219 595.625 1240.042969 595.941406 1241.734375 596.570312 C 1243.429688 597.195312 1244.960938 598.136719 1246.339844 599.394531 C 1248.011719 600.945312 1249.28125 602.710938 1250.144531 604.695312 C 1251.007812 606.679688 1251.441406 608.824219 1251.441406 611.132812 C 1251.441406 613.429688 1251.003906 615.566406 1250.136719 617.5625 C 1249.261719 619.550781 1248 621.300781 1246.339844 622.8125 C 1244.949219 624.082031 1243.40625 625.039062 1241.710938 625.675781 C 1240.019531 626.320312 1238.191406 626.640625 1236.21875 626.640625 C 1234.277344 626.640625 1232.449219 626.316406 1230.738281 625.667969 C 1229.035156 625.019531 1227.492188 624.070312 1226.117188 622.8125 C 1224.441406 621.289062 1223.171875 619.539062 1222.3125 617.5625 C 1221.445312 615.585938 1221.011719 613.4375 1221.011719 611.132812 "/>
  <path fill-rule="nonzero" fill="#F1EADD" d="M 1270.152344 626.132812 L 1270.152344 616.191406 L 1272.136719 616.191406 C 1272.503906 618.8125 1273.554688 620.878906 1275.296875 622.402344 C 1277.035156 623.917969 1279.214844 624.675781 1281.835938 624.675781 C 1283.941406 624.675781 1285.644531 624.125 1286.957031 623.027344 C 1288.265625 621.925781 1288.921875 620.488281 1288.921875 618.726562 C 1288.921875 617.265625 1288.453125 616.085938 1287.511719 615.179688 C 1286.574219 614.277344 1285.054688 613.546875 1282.949219 612.996094 L 1279.058594 611.964844 C 1276.132812 611.167969 1273.925781 610.054688 1272.429688 608.628906 C 1270.9375 607.207031 1270.191406 605.496094 1270.191406 603.503906 C 1270.191406 601.261719 1271.046875 599.402344 1272.753906 597.925781 C 1274.460938 596.445312 1276.617188 595.707031 1279.21875 595.707031 C 1281.003906 595.707031 1282.628906 596.097656 1284.101562 596.871094 C 1285.570312 597.648438 1286.726562 598.71875 1287.558594 600.101562 L 1287.441406 596.292969 L 1289.429688 596.292969 L 1289.429688 604.25 L 1287.558594 604.25 C 1287.027344 602.1875 1286.003906 600.578125 1284.507812 599.441406 C 1283.007812 598.304688 1281.179688 597.734375 1279.019531 597.734375 C 1277.132812 597.734375 1275.5625 598.246094 1274.300781 599.28125 C 1273.046875 600.3125 1272.421875 601.589844 1272.421875 603.117188 C 1272.421875 604.710938 1273.003906 606.035156 1274.164062 607.09375 C 1275.324219 608.152344 1277.089844 608.984375 1279.46875 609.59375 L 1284.082031 610.789062 C 1286.429688 611.394531 1288.199219 612.34375 1289.386719 613.628906 C 1290.570312 614.917969 1291.167969 616.542969 1291.167969 618.5 C 1291.167969 620.945312 1290.277344 622.925781 1288.496094 624.441406 C 1286.714844 625.957031 1284.371094 626.722656 1281.46875 626.722656 C 1279.542969 626.722656 1277.753906 626.261719 1276.125 625.355469 C 1274.492188 624.441406 1273.125 623.144531 1272.015625 621.457031 L 1272.136719 626.132812 Z M 1270.152344 626.132812 "/>
  </g>
</svg>
